<svg width="350" height="100" viewBox="0 0 350 100" fill="none" xmlns="http://www.w3.org/2000/svg">
<rect width="350" height="100" rx="50" fill="url(#paint0_linear_101_27)"/>
<path d="M21 48.5645V53.8532C53.5155 42.4381 64.3085 78.8532 130.308 56.7032C132.66 55.9163 134.667 54.6055 136.078 52.9335C137.489 51.2614 138.243 49.3017 138.245 47.2972C66.2383 74.7642 55.1097 36.6416 22.5405 46.7865C22.0861 46.9282 21.6965 47.1733 21.4219 47.4903C21.1472 47.8072 21.0003 48.1814 21 48.5645Z" fill="#458985"/>
<path d="M137.937 35.2742C116.329 27.6886 104.314 41.2242 79.3159 44.66C93.3921 46.5946 111.588 45.3254 137.937 35.2742Z" fill="#67C973"/>
<path d="M21 44.595C54.5619 32.8107 64.982 71.9877 136.852 45.1214C137.268 44.9658 137.62 44.7211 137.867 44.4154C138.114 44.1097 138.245 43.7556 138.245 43.394V38.038C72.9698 62.9368 57.7227 33.9368 31.1797 35.8547C28.3976 36.0551 25.8114 37.0625 23.9282 38.6794C22.045 40.2963 21.0007 42.4061 21 44.595Z" fill="#458985"/>
<path d="M21.3087 56.8051C42.9119 49.2196 54.9287 62.7551 79.9268 66.1916C65.8474 68.1252 47.655 66.8563 21.3087 56.8051Z" fill="#EF980C"/>
<path d="M175.632 50.74C175.632 50.964 175.651 51.2067 175.688 51.468C175.725 51.7293 175.791 51.9347 175.884 52.084C176.071 52.4573 176.295 52.6627 176.556 52.7C176.817 52.7373 177.06 52.6907 177.284 52.56C177.527 52.4107 177.741 52.2147 177.928 51.972C178.133 51.7293 178.273 51.524 178.348 51.356C178.479 51.02 178.572 50.6467 178.628 50.236C178.684 49.8067 178.703 49.3773 178.684 48.948C178.684 48.5187 178.647 48.0987 178.572 47.688C178.516 47.2773 178.441 46.8947 178.348 46.54C178.049 45.476 177.573 44.5707 176.92 43.824C176.285 43.0773 175.539 42.508 174.68 42.116C173.821 41.7053 172.888 41.4907 171.88 41.472C170.891 41.4347 169.892 41.5933 168.884 41.948C167.783 42.34 166.877 42.9 166.168 43.628C165.459 44.356 164.936 45.1867 164.6 46.12C164.283 47.0347 164.152 48.024 164.208 49.088C164.264 50.1333 164.507 51.1787 164.936 52.224C165.235 52.9893 165.636 53.6613 166.14 54.24C166.644 54.8187 167.223 55.304 167.876 55.696C168.548 56.088 169.267 56.3867 170.032 56.592C170.797 56.7973 171.581 56.9 172.384 56.9C172.589 56.9 172.907 56.8907 173.336 56.872C173.784 56.8533 174.204 56.8813 174.596 56.956C174.988 57.012 175.296 57.152 175.52 57.376C175.763 57.6 175.791 57.9547 175.604 58.44C175.473 58.776 175.203 59.028 174.792 59.196C174.381 59.3827 173.924 59.5133 173.42 59.588C172.935 59.6627 172.44 59.7 171.936 59.7C171.451 59.7187 171.068 59.728 170.788 59.728C169.313 59.6907 167.904 59.392 166.56 58.832C165.216 58.272 164.077 57.404 163.144 56.228C162.229 55.108 161.557 53.8293 161.128 52.392C160.699 50.9547 160.531 49.5267 160.624 48.108C160.699 47.3613 160.829 46.596 161.016 45.812C161.203 45.028 161.464 44.2813 161.8 43.572C162.136 42.844 162.547 42.172 163.032 41.556C163.536 40.94 164.124 40.4173 164.796 39.988C165.58 39.4653 166.42 39.0453 167.316 38.728C168.212 38.392 169.136 38.1773 170.088 38.084C171.04 37.972 172.011 37.9907 173 38.14C173.989 38.2707 174.979 38.56 175.968 39.008C177.069 39.4933 178.012 40.1093 178.796 40.856C179.599 41.584 180.233 42.4147 180.7 43.348C181.185 44.2813 181.512 45.2987 181.68 46.4C181.867 47.5013 181.904 48.6493 181.792 49.844C181.661 50.9267 181.335 51.9627 180.812 52.952C180.308 53.9227 179.571 54.7067 178.6 55.304C178.432 55.416 178.227 55.5187 177.984 55.612C177.741 55.7053 177.48 55.7613 177.2 55.78C176.92 55.78 176.621 55.7427 176.304 55.668C175.987 55.5747 175.66 55.4067 175.324 55.164C175.119 55.0147 174.932 54.8373 174.764 54.632C174.615 54.408 174.484 54.2027 174.372 54.016C174.26 53.8107 174.167 53.6427 174.092 53.512C174.036 53.3627 174.008 53.2787 174.008 53.26C173.971 53.2973 173.868 53.4373 173.7 53.68C173.551 53.904 173.355 54.1093 173.112 54.296C172.963 54.408 172.767 54.5013 172.524 54.576C172.281 54.632 172.029 54.6787 171.768 54.716C171.507 54.7347 171.245 54.744 170.984 54.744C170.723 54.744 170.499 54.7253 170.312 54.688C169.435 54.5013 168.725 54.1933 168.184 53.764C167.643 53.316 167.223 52.812 166.924 52.252C166.625 51.692 166.448 51.0853 166.392 50.432C166.336 49.7787 166.364 49.1253 166.476 48.472C166.625 47.6133 166.943 46.876 167.428 46.26C167.913 45.6253 168.473 45.1587 169.108 44.86C169.743 44.5613 170.405 44.4587 171.096 44.552C171.787 44.6267 172.421 44.944 173 45.504C172.981 45.448 172.972 45.364 172.972 45.252C172.972 45.14 172.981 45.0187 173 44.888C173.037 44.7573 173.075 44.636 173.112 44.524C173.149 44.3933 173.187 44.3 173.224 44.244C173.392 44.0387 173.607 43.908 173.868 43.852C174.148 43.7773 174.409 43.7773 174.652 43.852C174.913 43.908 175.137 44.0293 175.324 44.216C175.529 44.384 175.632 44.608 175.632 44.888V50.74ZM172.58 51.188C172.636 51.0387 172.701 50.8987 172.776 50.768C172.851 50.6373 172.907 50.4787 172.944 50.292C173.075 49.6573 172.991 49.0973 172.692 48.612C172.412 48.108 172.048 47.7533 171.6 47.548C171.152 47.3427 170.695 47.324 170.228 47.492C169.761 47.66 169.407 48.0893 169.164 48.78C168.884 49.5267 168.847 50.1613 169.052 50.684C169.257 51.2067 169.565 51.5893 169.976 51.832C170.405 52.056 170.872 52.1213 171.376 52.028C171.88 51.9347 172.281 51.6547 172.58 51.188ZM199.987 52.476C200.025 53.0733 200.043 53.6427 200.043 54.184C200.043 54.7067 200.025 55.2667 199.987 55.864C199.987 56.088 199.987 56.34 199.987 56.62C199.987 56.9 199.969 57.1707 199.931 57.432C199.894 57.6933 199.829 57.936 199.735 58.16C199.642 58.384 199.502 58.5613 199.315 58.692C199.091 58.8413 198.839 58.944 198.559 59C198.279 59.0373 198.018 59.0187 197.775 58.944C197.533 58.8693 197.318 58.7293 197.131 58.524C196.963 58.3187 196.87 58.0293 196.851 57.656C196.795 56.7973 196.767 55.9387 196.767 55.08C196.767 54.6507 196.758 54.24 196.739 53.848C196.739 53.456 196.749 52.9053 196.767 52.196C196.767 51.8413 196.739 51.44 196.683 50.992C196.627 50.5253 196.487 50.1987 196.263 50.012C196.095 49.8627 195.909 49.7787 195.703 49.76C195.498 49.7227 195.293 49.7413 195.087 49.816C194.901 49.8907 194.733 50.0307 194.583 50.236C194.434 50.4227 194.331 50.6653 194.275 50.964C194.275 51.2067 194.266 51.4587 194.247 51.72C194.247 51.9627 194.257 52.196 194.275 52.42C194.294 53.0173 194.303 53.5867 194.303 54.128C194.303 54.6507 194.294 55.2107 194.275 55.808C194.257 56.0507 194.247 56.312 194.247 56.592C194.266 56.872 194.266 57.152 194.247 57.432C194.229 57.6933 194.173 57.936 194.079 58.16C194.005 58.384 193.865 58.5613 193.659 58.692C193.435 58.8413 193.193 58.9347 192.931 58.972C192.689 58.9907 192.455 58.9533 192.231 58.86C192.026 58.748 191.839 58.58 191.671 58.356C191.522 58.132 191.438 57.8333 191.419 57.46C191.382 57.0307 191.354 56.6387 191.335 56.284C191.335 55.9107 191.335 55.5187 191.335 55.108C191.335 54.6787 191.345 54.24 191.363 53.792C191.382 53.3253 191.373 52.8773 191.335 52.448C191.335 52.3173 191.326 52.168 191.307 52C191.307 51.8133 191.298 51.6267 191.279 51.44C191.279 51.2533 191.261 51.076 191.223 50.908C191.205 50.7213 191.167 50.572 191.111 50.46C190.962 50.1987 190.691 50.0307 190.299 49.956C189.926 49.8813 189.609 49.9093 189.347 50.04C189.086 50.1707 188.89 50.3387 188.759 50.544C188.629 50.7493 188.535 50.9733 188.479 51.216C188.423 51.4587 188.395 51.72 188.395 52C188.395 52.2613 188.395 52.5133 188.395 52.756C188.395 53.9693 188.395 55.024 188.395 55.92C188.414 56.7973 188.321 57.5067 188.115 58.048C188.022 58.328 187.826 58.5427 187.527 58.692C187.247 58.8413 186.939 58.916 186.603 58.916C186.286 58.916 185.987 58.8413 185.707 58.692C185.427 58.5427 185.241 58.3093 185.147 57.992C185.091 57.7867 185.035 57.4973 184.979 57.124C184.942 56.732 184.914 56.3027 184.895 55.836C184.877 55.3693 184.867 54.9027 184.867 54.436C184.867 53.9507 184.867 53.512 184.867 53.12V49.088C184.849 48.6587 184.839 48.192 184.839 47.688C184.839 47.184 184.914 46.7267 185.063 46.316C185.194 45.9613 185.399 45.7373 185.679 45.644C185.959 45.532 186.249 45.4853 186.547 45.504C186.883 45.504 187.145 45.5973 187.331 45.784C187.537 45.952 187.686 46.1667 187.779 46.428C187.873 46.6707 187.929 46.9507 187.947 47.268C187.966 47.5667 187.985 47.856 188.003 48.136C188.209 47.6693 188.451 47.2867 188.731 46.988C189.03 46.6707 189.45 46.4653 189.991 46.372C191.373 46.1107 192.474 46.4653 193.295 47.436C193.669 47.0627 194.145 46.7547 194.723 46.512C195.171 46.344 195.629 46.2693 196.095 46.288C196.562 46.288 197.001 46.372 197.411 46.54C197.841 46.708 198.223 46.9507 198.559 47.268C198.914 47.5853 199.194 47.968 199.399 48.416C199.679 49.0133 199.838 49.676 199.875 50.404C199.913 51.132 199.95 51.8227 199.987 52.476ZM211.02 39.428C211.375 39.3347 211.683 39.3253 211.944 39.4C212.224 39.456 212.457 39.5773 212.644 39.764C212.849 39.9507 212.999 40.184 213.092 40.464C213.204 40.744 213.26 41.052 213.26 41.388C213.279 42.3213 213.279 43.0493 213.26 43.572C213.26 44.0947 213.26 44.552 213.26 44.944V53.54C213.26 54.548 213.26 55.388 213.26 56.06C213.26 56.732 213.223 57.2827 213.148 57.712C213.092 58.1227 212.98 58.4307 212.812 58.636C212.663 58.8413 212.429 58.9813 212.112 59.056C211.795 59.1493 211.375 59.196 210.852 59.196C210.348 59.196 209.713 59.196 208.948 59.196C206.932 59.196 205.336 58.72 204.16 57.768C203.003 56.816 202.387 55.304 202.312 53.232C202.275 52.336 202.387 51.5147 202.648 50.768C202.909 50.0213 203.292 49.3867 203.796 48.864C204.319 48.3227 204.953 47.912 205.7 47.632C206.465 47.3333 207.333 47.1933 208.304 47.212H209.844V42.2C209.844 41.9013 209.844 41.612 209.844 41.332C209.844 41.0333 209.872 40.7627 209.928 40.52C209.984 40.2587 210.096 40.0347 210.264 39.848C210.432 39.6613 210.684 39.5213 211.02 39.428ZM206.148 54.968C206.54 55.5093 207.249 55.808 208.276 55.864C208.481 55.8827 208.677 55.892 208.864 55.892C209.051 55.8733 209.219 55.8453 209.368 55.808C209.536 55.7893 209.695 55.7613 209.844 55.724V50.544C209.191 50.432 208.593 50.3667 208.052 50.348C207.529 50.3107 207.007 50.4973 206.484 50.908C206.204 51.132 205.989 51.4213 205.84 51.776C205.691 52.112 205.607 52.476 205.588 52.868C205.569 53.2413 205.607 53.6147 205.7 53.988C205.793 54.3613 205.943 54.688 206.148 54.968ZM219.046 48.388C219.046 48.9107 219.046 49.4987 219.046 50.152C219.065 50.8053 219.074 51.4867 219.074 52.196C219.074 52.8867 219.074 53.5773 219.074 54.268C219.074 54.94 219.065 55.5653 219.046 56.144C219.028 56.424 219 56.732 218.962 57.068C218.925 57.3853 218.85 57.684 218.738 57.964C218.626 58.244 218.449 58.4773 218.206 58.664C217.982 58.832 217.674 58.9067 217.282 58.888C216.704 58.8507 216.284 58.5987 216.022 58.132C215.78 57.6653 215.64 57.012 215.602 56.172C215.602 55.7427 215.593 55.248 215.574 54.688C215.574 54.128 215.565 53.5587 215.546 52.98C215.546 52.4013 215.546 51.8413 215.546 51.3C215.546 50.74 215.546 50.236 215.546 49.788C215.546 49.5267 215.537 49.2093 215.518 48.836C215.518 48.4627 215.528 48.08 215.546 47.688C215.565 47.296 215.612 46.9227 215.686 46.568C215.761 46.1947 215.882 45.8867 216.05 45.644C216.181 45.4947 216.368 45.3827 216.61 45.308C216.853 45.2147 217.105 45.168 217.366 45.168C217.646 45.168 217.908 45.2147 218.15 45.308C218.412 45.4013 218.598 45.532 218.71 45.7C218.785 45.812 218.841 45.9707 218.878 46.176C218.916 46.3813 218.944 46.6147 218.962 46.876C219 47.1187 219.018 47.38 219.018 47.66C219.037 47.9213 219.046 48.164 219.046 48.388ZM217.982 42.732C217.404 42.8813 216.918 42.8253 216.526 42.564C216.153 42.284 215.92 41.8733 215.826 41.332C215.752 40.94 215.78 40.5947 215.91 40.296C216.041 39.9973 216.237 39.7733 216.498 39.624C216.76 39.456 217.058 39.3813 217.394 39.4C217.73 39.4187 218.066 39.5493 218.402 39.792C218.72 40.016 218.944 40.2773 219.074 40.576C219.224 40.8747 219.27 41.164 219.214 41.444C219.177 41.724 219.056 41.9853 218.85 42.228C218.645 42.452 218.356 42.62 217.982 42.732ZM221.535 49.088C221.535 48.864 221.535 48.612 221.535 48.332C221.535 48.0333 221.544 47.7347 221.563 47.436C221.581 47.1187 221.609 46.82 221.647 46.54C221.703 46.2413 221.777 45.98 221.871 45.756C222.02 45.42 222.253 45.196 222.571 45.084C222.888 44.9533 223.233 44.8973 223.607 44.916C223.999 44.916 224.307 44.9813 224.531 45.112C224.755 45.2427 224.923 45.42 225.035 45.644C225.147 45.8493 225.212 46.092 225.231 46.372C225.268 46.6333 225.287 46.9133 225.287 47.212C225.455 46.9133 225.679 46.6707 225.959 46.484C226.257 46.2973 226.556 46.148 226.855 46.036C227.153 45.924 227.424 45.8493 227.667 45.812C227.909 45.756 228.049 45.728 228.087 45.728C228.553 45.6907 228.973 45.6813 229.347 45.7C229.739 45.7187 230.168 45.8027 230.635 45.952C230.933 46.064 231.241 46.2227 231.559 46.428C231.876 46.6147 232.156 46.8387 232.399 47.1C232.641 47.3613 232.8 47.6507 232.875 47.968C232.968 48.2667 232.931 48.584 232.763 48.92C232.501 49.3867 232.212 49.62 231.895 49.62C231.577 49.6013 231.232 49.5453 230.859 49.452C230.653 49.4147 230.411 49.3307 230.131 49.2C229.851 49.0693 229.608 48.9853 229.403 48.948C228.768 48.8547 228.208 48.9013 227.723 49.088C227.237 49.2747 226.817 49.4987 226.463 49.76C226.052 50.0773 225.697 50.4413 225.399 50.852V54.884C225.399 55.388 225.389 55.9107 225.371 56.452C225.371 56.9933 225.296 57.488 225.147 57.936C225.016 58.3653 224.783 58.72 224.447 59C224.129 59.2613 223.663 59.3733 223.047 59.336C222.711 59.3173 222.412 59.1587 222.151 58.86C221.889 58.5427 221.731 58.2347 221.675 57.936C221.637 57.656 221.609 57.32 221.591 56.928C221.572 56.536 221.553 56.1253 221.535 55.696C221.535 55.2667 221.535 54.8373 221.535 54.408C221.535 53.96 221.535 53.5493 221.535 53.176V49.088ZM240.667 54.072C240.313 53.848 239.911 53.6707 239.463 53.54C239.034 53.4093 238.586 53.288 238.119 53.176C237.671 53.064 237.233 52.9427 236.803 52.812C236.374 52.6627 235.982 52.4573 235.627 52.196C234.862 51.6173 234.414 50.908 234.283 50.068C234.171 49.2093 234.358 48.3507 234.843 47.492C235.105 47.044 235.45 46.68 235.879 46.4C236.309 46.1013 236.775 45.8773 237.279 45.728C237.802 45.56 238.334 45.4667 238.875 45.448C239.417 45.4293 239.93 45.4573 240.415 45.532C240.733 45.588 241.069 45.672 241.423 45.784C241.778 45.8773 242.105 46.008 242.403 46.176C242.721 46.344 243.001 46.5587 243.243 46.82C243.505 47.0627 243.691 47.3707 243.803 47.744C243.878 47.9867 243.887 48.22 243.831 48.444C243.794 48.668 243.701 48.8547 243.551 49.004C243.421 49.1533 243.243 49.2653 243.019 49.34C242.814 49.4147 242.59 49.4333 242.347 49.396C242.067 49.34 241.806 49.256 241.563 49.144C241.321 49.032 241.078 48.9107 240.835 48.78C240.593 48.6493 240.341 48.5373 240.079 48.444C239.837 48.3507 239.575 48.304 239.295 48.304C238.866 48.2853 238.511 48.36 238.231 48.528C237.951 48.696 237.755 48.9013 237.643 49.144C237.55 49.3867 237.559 49.648 237.671 49.928C237.802 50.208 238.063 50.4507 238.455 50.656C238.81 50.8427 239.202 50.992 239.631 51.104C240.061 51.216 240.481 51.328 240.891 51.44C241.321 51.552 241.731 51.6827 242.123 51.832C242.534 51.9813 242.898 52.1867 243.215 52.448C243.831 52.952 244.205 53.54 244.335 54.212C244.485 54.884 244.447 55.5467 244.223 56.2C243.999 56.8533 243.607 57.432 243.047 57.936C242.506 58.44 241.862 58.776 241.115 58.944C240.574 59.056 239.986 59.112 239.351 59.112C238.735 59.112 238.119 59.0467 237.503 58.916C236.906 58.7853 236.327 58.58 235.767 58.3C235.226 58.02 234.769 57.6653 234.395 57.236C234.134 56.9373 233.994 56.6013 233.975 56.228C233.975 55.836 234.05 55.5 234.199 55.22C234.367 54.9213 234.601 54.716 234.899 54.604C235.198 54.492 235.534 54.5573 235.907 54.8C236.206 55.0053 236.561 55.2107 236.971 55.416C237.382 55.6027 237.793 55.752 238.203 55.864C238.614 55.976 239.006 56.032 239.379 56.032C239.771 56.032 240.107 55.948 240.387 55.78C240.798 55.5187 241.013 55.22 241.031 54.884C241.05 54.5293 240.929 54.2587 240.667 54.072ZM257.61 53.484C257.629 53.8573 257.638 54.2493 257.638 54.66C257.638 55.052 257.629 55.416 257.61 55.752C257.592 56.256 257.564 56.7227 257.526 57.152C257.489 57.5627 257.414 57.9173 257.302 58.216C257.19 58.496 257.013 58.7107 256.77 58.86C256.546 58.9907 256.229 59.028 255.818 58.972C255.389 58.916 255.081 58.7107 254.894 58.356C254.708 58.0013 254.577 57.6 254.502 57.152C254.446 56.6853 254.428 56.2187 254.446 55.752C254.465 55.2853 254.465 54.9213 254.446 54.66C254.428 54.2493 254.409 53.7827 254.39 53.26C254.39 52.7187 254.334 52.2147 254.222 51.748C254.129 51.2627 253.961 50.852 253.718 50.516C253.476 50.18 253.112 50.0027 252.626 49.984C252.01 49.9467 251.534 49.9933 251.198 50.124C250.881 50.2547 250.648 50.4507 250.498 50.712C250.349 50.9547 250.256 51.2533 250.218 51.608C250.2 51.9627 250.162 52.3453 250.106 52.756L250.078 53.848V55.892C250.078 56.228 250.069 56.5827 250.05 56.956C250.05 57.3107 249.994 57.6373 249.882 57.936C249.77 58.2347 249.593 58.4867 249.35 58.692C249.126 58.8973 248.79 59 248.342 59C247.782 59 247.362 58.8227 247.082 58.468C246.821 58.0947 246.69 57.6373 246.69 57.096V40.996C246.69 40.884 246.69 40.7813 246.69 40.688C246.709 40.576 246.728 40.464 246.746 40.352C246.784 40.24 246.812 40.1373 246.83 40.044C246.849 39.932 246.877 39.8293 246.914 39.736C246.97 39.5493 247.064 39.4093 247.194 39.316C247.288 39.2227 247.381 39.148 247.474 39.092C247.568 39.036 247.67 38.9987 247.782 38.98C247.876 38.9613 247.978 38.952 248.09 38.952C248.202 38.9333 248.314 38.924 248.426 38.924C248.706 38.924 248.977 39.008 249.238 39.176C249.35 39.2507 249.453 39.3347 249.546 39.428C249.64 39.5027 249.714 39.6147 249.77 39.764C249.92 40.1187 249.994 40.4547 249.994 40.772C250.013 40.8653 250.022 41.0053 250.022 41.192C250.041 41.36 250.05 41.5373 250.05 41.724C250.05 41.9107 250.05 42.0973 250.05 42.284C250.069 42.452 250.078 42.5827 250.078 42.676V42.816C250.097 43.4133 250.106 44.02 250.106 44.636C250.106 45.252 250.106 45.8773 250.106 46.512V46.988C250.89 46.7267 251.712 46.6053 252.57 46.624C253.429 46.624 254.194 46.792 254.866 47.128C255.557 47.4827 256.08 47.884 256.434 48.332C256.808 48.78 257.078 49.2747 257.246 49.816C257.414 50.3573 257.508 50.936 257.526 51.552C257.564 52.168 257.592 52.812 257.61 53.484ZM263.146 47.212C263.706 46.932 264.294 46.736 264.91 46.624C265.526 46.4933 266.133 46.4653 266.73 46.54C267.346 46.596 267.934 46.7547 268.494 47.016C269.054 47.2587 269.577 47.6133 270.062 48.08C270.547 48.5653 270.921 49.0973 271.182 49.676C271.443 50.2547 271.63 50.8987 271.742 51.608C271.817 52.0933 271.938 52.5413 272.106 52.952C272.274 53.3627 272.451 53.7733 272.638 54.184C272.843 54.5947 273.03 55.0053 273.198 55.416C273.385 55.8267 273.534 56.256 273.646 56.704C273.739 57.1333 273.702 57.5533 273.534 57.964C273.385 58.356 273.067 58.5987 272.582 58.692C272.302 58.748 272.031 58.7293 271.77 58.636C271.527 58.524 271.303 58.3747 271.098 58.188C270.893 57.9827 270.706 57.768 270.538 57.544C270.389 57.3013 270.249 57.0773 270.118 56.872C269.689 57.432 269.222 57.8707 268.718 58.188C268.214 58.4867 267.607 58.6827 266.898 58.776C266.301 58.8507 265.731 58.8693 265.19 58.832C264.649 58.7947 264.07 58.692 263.454 58.524C262.651 58.3187 261.989 57.964 261.466 57.46C260.962 56.9373 260.57 56.34 260.29 55.668C260.029 54.9773 259.889 54.24 259.87 53.456C259.851 52.672 259.945 51.8973 260.15 51.132C260.411 50.124 260.803 49.3027 261.326 48.668C261.849 48.0333 262.455 47.548 263.146 47.212ZM263.846 50.488C263.585 50.7493 263.379 51.0573 263.23 51.412C263.081 51.7667 262.987 52.14 262.95 52.532C262.931 52.924 262.969 53.316 263.062 53.708C263.155 54.1 263.305 54.4453 263.51 54.744C263.697 55.0053 264.014 55.2293 264.462 55.416C264.91 55.584 265.377 55.6867 265.862 55.724C266.422 55.7613 266.907 55.612 267.318 55.276C267.747 54.94 268.065 54.52 268.27 54.016C268.494 53.4933 268.597 52.9427 268.578 52.364C268.559 51.7667 268.401 51.2253 268.102 50.74C267.878 50.3853 267.579 50.124 267.206 49.956C266.851 49.788 266.469 49.704 266.058 49.704C265.647 49.6853 265.237 49.7507 264.826 49.9C264.434 50.0307 264.107 50.2267 263.846 50.488ZM284.711 39.428C285.066 39.3347 285.374 39.3253 285.635 39.4C285.915 39.456 286.149 39.5773 286.335 39.764C286.541 39.9507 286.69 40.184 286.783 40.464C286.895 40.744 286.951 41.052 286.951 41.388C286.97 42.3213 286.97 43.0493 286.951 43.572C286.951 44.0947 286.951 44.552 286.951 44.944V53.54C286.951 54.548 286.951 55.388 286.951 56.06C286.951 56.732 286.914 57.2827 286.839 57.712C286.783 58.1227 286.671 58.4307 286.503 58.636C286.354 58.8413 286.121 58.9813 285.803 59.056C285.486 59.1493 285.066 59.196 284.543 59.196C284.039 59.196 283.405 59.196 282.639 59.196C280.623 59.196 279.027 58.72 277.851 57.768C276.694 56.816 276.078 55.304 276.003 53.232C275.966 52.336 276.078 51.5147 276.339 50.768C276.601 50.0213 276.983 49.3867 277.487 48.864C278.01 48.3227 278.645 47.912 279.391 47.632C280.157 47.3333 281.025 47.1933 281.995 47.212H283.535V42.2C283.535 41.9013 283.535 41.612 283.535 41.332C283.535 41.0333 283.563 40.7627 283.619 40.52C283.675 40.2587 283.787 40.0347 283.955 39.848C284.123 39.6613 284.375 39.5213 284.711 39.428ZM279.839 54.968C280.231 55.5093 280.941 55.808 281.967 55.864C282.173 55.8827 282.369 55.892 282.555 55.892C282.742 55.8733 282.91 55.8453 283.059 55.808C283.227 55.7893 283.386 55.7613 283.535 55.724V50.544C282.882 50.432 282.285 50.3667 281.743 50.348C281.221 50.3107 280.698 50.4973 280.175 50.908C279.895 51.132 279.681 51.4213 279.531 51.776C279.382 52.112 279.298 52.476 279.279 52.868C279.261 53.2413 279.298 53.6147 279.391 53.988C279.485 54.3613 279.634 54.688 279.839 54.968ZM297.946 39.428C298.301 39.3347 298.609 39.3253 298.87 39.4C299.15 39.456 299.383 39.5773 299.57 39.764C299.775 39.9507 299.925 40.184 300.018 40.464C300.13 40.744 300.186 41.052 300.186 41.388C300.205 42.3213 300.205 43.0493 300.186 43.572C300.186 44.0947 300.186 44.552 300.186 44.944V53.54C300.186 54.548 300.186 55.388 300.186 56.06C300.186 56.732 300.149 57.2827 300.074 57.712C300.018 58.1227 299.906 58.4307 299.738 58.636C299.589 58.8413 299.355 58.9813 299.038 59.056C298.721 59.1493 298.301 59.196 297.778 59.196C297.274 59.196 296.639 59.196 295.874 59.196C293.858 59.196 292.262 58.72 291.086 57.768C289.929 56.816 289.313 55.304 289.238 53.232C289.201 52.336 289.313 51.5147 289.574 50.768C289.835 50.0213 290.218 49.3867 290.722 48.864C291.245 48.3227 291.879 47.912 292.626 47.632C293.391 47.3333 294.259 47.1933 295.23 47.212H296.77V42.2C296.77 41.9013 296.77 41.612 296.77 41.332C296.77 41.0333 296.798 40.7627 296.854 40.52C296.91 40.2587 297.022 40.0347 297.19 39.848C297.358 39.6613 297.61 39.5213 297.946 39.428ZM293.074 54.968C293.466 55.5093 294.175 55.808 295.202 55.864C295.407 55.8827 295.603 55.892 295.79 55.892C295.977 55.8733 296.145 55.8453 296.294 55.808C296.462 55.7893 296.621 55.7613 296.77 55.724V50.544C296.117 50.432 295.519 50.3667 294.978 50.348C294.455 50.3107 293.933 50.4973 293.41 50.908C293.13 51.132 292.915 51.4213 292.766 51.776C292.617 52.112 292.533 52.476 292.514 52.868C292.495 53.2413 292.533 53.6147 292.626 53.988C292.719 54.3613 292.869 54.688 293.074 54.968ZM312.132 55.164C312.356 55.108 312.58 55.0707 312.804 55.052C313.047 55.0333 313.262 55.0613 313.448 55.136C313.654 55.2107 313.822 55.3413 313.952 55.528C314.083 55.696 314.148 55.9387 314.148 56.256C314.148 56.48 314.092 56.6947 313.98 56.9C313.868 57.1053 313.728 57.292 313.56 57.46C313.392 57.628 313.206 57.7773 313 57.908C312.795 58.02 312.599 58.1133 312.412 58.188C311.871 58.4307 311.246 58.6173 310.536 58.748C309.846 58.8787 309.127 58.9253 308.38 58.888C307.372 58.8507 306.402 58.6547 305.468 58.3C304.554 57.9267 303.835 57.32 303.312 56.48C302.827 55.6587 302.538 54.744 302.444 53.736C302.351 52.728 302.398 51.776 302.584 50.88C302.79 49.7973 303.135 48.92 303.62 48.248C304.124 47.5573 304.722 47.0067 305.412 46.596C306.252 46.1107 307.195 45.8587 308.24 45.84C309.286 45.8213 310.284 46.0267 311.236 46.456C311.871 46.736 312.44 47.1187 312.944 47.604C313.448 48.0707 313.831 48.64 314.092 49.312C314.167 49.48 314.223 49.6853 314.26 49.928C314.316 50.1707 314.354 50.432 314.372 50.712C314.391 50.9733 314.391 51.2347 314.372 51.496C314.354 51.7573 314.307 51.9907 314.232 52.196C314.12 52.532 313.98 52.7933 313.812 52.98C313.644 53.1667 313.43 53.3067 313.168 53.4C312.907 53.4933 312.59 53.5587 312.216 53.596C311.862 53.6147 311.432 53.6333 310.928 53.652C310.48 53.6707 310.06 53.68 309.668 53.68C309.276 53.68 308.875 53.68 308.464 53.68C308.054 53.6613 307.624 53.652 307.176 53.652C306.747 53.6333 306.262 53.6147 305.72 53.596C305.664 53.9693 305.711 54.296 305.86 54.576C306.028 54.8373 306.252 55.0613 306.532 55.248C306.812 55.416 307.13 55.5467 307.484 55.64C307.839 55.7333 308.184 55.7893 308.52 55.808C309.155 55.8453 309.762 55.7987 310.34 55.668C310.919 55.5187 311.516 55.3507 312.132 55.164ZM310.928 49.732C310.574 49.3213 310.2 49.0227 309.808 48.836C309.51 48.7053 309.192 48.6493 308.856 48.668C308.539 48.668 308.231 48.7147 307.932 48.808C307.391 48.9387 306.934 49.2187 306.56 49.648C306.523 49.6853 306.458 49.7787 306.364 49.928C306.271 50.0587 306.178 50.1987 306.084 50.348C306.01 50.4973 305.954 50.6373 305.916 50.768C305.879 50.8987 305.898 50.964 305.972 50.964H311.46C311.442 50.7027 311.395 50.488 311.32 50.32C311.246 50.1333 311.115 49.9373 310.928 49.732ZM329.096 46.736C329.17 46.96 329.189 47.212 329.152 47.492C329.114 47.772 329.049 48.0613 328.956 48.36C328.862 48.64 328.75 48.92 328.62 49.2C328.508 49.4613 328.405 49.6947 328.312 49.9C327.826 50.8893 327.369 51.86 326.94 52.812C326.51 53.764 326.006 54.8 325.428 55.92C325.316 56.144 325.185 56.4147 325.036 56.732C324.905 57.0307 324.756 57.3293 324.588 57.628C324.42 57.908 324.233 58.1693 324.028 58.412C323.841 58.6547 323.636 58.832 323.412 58.944C323.225 59.056 323.038 59.1027 322.852 59.084C322.702 59.1213 322.534 59.0747 322.348 58.944C322.124 58.832 321.909 58.6547 321.704 58.412C321.517 58.1693 321.34 57.908 321.172 57.628C321.004 57.3293 320.845 57.0307 320.696 56.732C320.565 56.4147 320.444 56.144 320.332 55.92C320.108 55.4907 319.893 55.0893 319.688 54.716C319.501 54.3427 319.296 53.9413 319.072 53.512C318.866 53.064 318.633 52.56 318.372 52C318.11 51.4213 317.802 50.7213 317.448 49.9C317.354 49.676 317.252 49.4427 317.14 49.2C317.028 48.9573 316.925 48.696 316.832 48.416C316.757 48.136 316.701 47.856 316.664 47.576C316.645 47.2773 316.664 46.9787 316.72 46.68C316.776 46.4 316.916 46.176 317.14 46.008C317.364 45.84 317.616 45.728 317.896 45.672C318.176 45.616 318.456 45.6253 318.736 45.7C319.016 45.756 319.24 45.8773 319.408 46.064C319.576 46.232 319.734 46.456 319.884 46.736C320.033 47.016 320.173 47.3147 320.304 47.632C320.453 47.9307 320.584 48.2387 320.696 48.556C320.826 48.8547 320.948 49.116 321.06 49.34C321.321 49.8813 321.61 50.4693 321.928 51.104C322.264 51.7387 322.562 52.3267 322.824 52.868C323.01 52.4387 323.178 52.084 323.328 51.804C323.477 51.5053 323.617 51.216 323.748 50.936C323.897 50.656 324.046 50.348 324.196 50.012C324.364 49.676 324.569 49.2467 324.812 48.724C325.036 48.2387 325.26 47.7627 325.484 47.296C325.726 46.8293 326.016 46.4187 326.352 46.064C326.52 45.8773 326.734 45.756 326.996 45.7C327.257 45.6253 327.528 45.616 327.808 45.672C328.088 45.728 328.34 45.8493 328.564 46.036C328.806 46.204 328.984 46.4373 329.096 46.736Z" fill="url(#paint1_linear_101_27)"/>
<defs>
<linearGradient id="paint0_linear_101_27" x1="0" y1="50" x2="350" y2="50" gradientUnits="userSpaceOnUse">
<stop stop-color="#DAD299"/>
<stop offset="1" stop-color="#B0DAB9"/>
</linearGradient>
<linearGradient id="paint1_linear_101_27" x1="159" y1="50.5" x2="331" y2="50.5" gradientUnits="userSpaceOnUse">
<stop stop-color="#157578"/>
<stop offset="1" stop-color="#00CDAC"/>
</linearGradient>
</defs>
</svg>
