<svg xmlns="http://www.w3.org/2000/svg" viewBox="0 0 1200 1200" width="1200" height="1200" preserveAspectRatio="xMidYMid slice" style="width: 100%; height: 100%; transform: translate3d(0px, 0px, 0px);">
  <defs>
    <clipPath id="__lottie_element_2">
      <rect width="1200" height="1200" x="0" y="0"></rect>
    </clipPath>
  </defs>
  <g clip-path="url(#__lottie_element_2)">
    <g transform="matrix(12.920000076293945,0,0,12.920000076293945,-750.6400146484375,-247.760009765625)" opacity="0.5700000000000001" style="display: block;">
      <g opacity="1" transform="matrix(1,0,0,1,102.5,64.5)">
        <g opacity="1" transform="matrix(1,0,0,1.054169774055481,0,0)">
          <path stroke-linecap="square" stroke-linejoin="miter" fill-opacity="0" stroke-miterlimit="4" stroke="rgb(197,199,205)" stroke-opacity="1" stroke-width="1.5" d=" M0,-9 C0,-9 0,9 0,9"></path>
        </g>
      </g>
      <g opacity="1" transform="matrix(1,0,0,1,98.5,65.5)">
        <g opacity="1" transform="matrix(1,0,0,0.818533182144165,0,0)">
          <path stroke-linecap="square" stroke-linejoin="miter" fill-opacity="0" stroke-miterlimit="4" stroke="rgb(197,199,205)" stroke-opacity="1" stroke-width="1.5" d=" M0,-4 C0,-4 0,4 0,4"></path>
        </g>
      </g>
      <g opacity="1" transform="matrix(1,0,0,1,94.5,65.5)">
        <g opacity="1" transform="matrix(1,0,0,1.0866791009902954,0,0)">
          <path stroke-linecap="square" stroke-linejoin="miter" fill-opacity="0" stroke-miterlimit="4" stroke="rgb(197,199,205)" stroke-opacity="1" stroke-width="1.5" d=" M0,-1 C0,-1 0,1 0,1"></path>
        </g>
      </g>
      <g opacity="1" transform="matrix(1,0,0,1,106.5,66.5)">
        <g opacity="1" transform="matrix(1,0,0,1.3528965711593628,0,0)">
          <path stroke-linecap="square" stroke-linejoin="miter" fill-opacity="0" stroke-miterlimit="4" stroke="rgb(197,199,205)" stroke-opacity="1" stroke-width="1.5" d=" M0,-9 C0,-9 0,9 0,9"></path>
        </g>
      </g>
      <g opacity="1" transform="matrix(1,0,0,1,110.5,65.5)">
        <g opacity="1" transform="matrix(1,0,0,1.2683395147323608,0,0)">
          <path stroke-linecap="square" stroke-linejoin="miter" fill-opacity="0" stroke-miterlimit="4" stroke="rgb(197,199,205)" stroke-opacity="1" stroke-width="1.5" d=" M0,-4 C0,-4 0,4 0,4"></path>
        </g>
      </g>
      <g opacity="1" transform="matrix(1,0,0,1,114.5,65.5)">
        <g opacity="1" transform="matrix(1,0,0,0.7137453556060791,0,0)">
          <path stroke-linecap="square" stroke-linejoin="miter" fill-opacity="0" stroke-miterlimit="4" stroke="rgb(197,199,205)" stroke-opacity="1" stroke-width="1.5" d=" M0,-1 C0,-1 0,1 0,1"></path>
        </g>
      </g>
    </g>
  </g>
</svg>